PathFileType        4      (X/Y/Z)      C:\Users\pc\Desktop\IMUTRC\Sujet_04\Sujet_04_velo_60.trc         
DataRate	CameraRate	NumFrames	NumMarkers	Units	OrigDataRate	OrigDataStartFrame	OrigNumFrames
60.0	60.0	4	64	mm	60.0	158	1257
Frame#	Time	pHipOrigin			pRightASI			pLeftASI			pRightCSI			pLeftCSI			pRightIschialTub			pLeftIschialTub			pSacrum			pL5SpinalProcess			pL3SpinalProcess			pT12SpinalProcess			pIJ			pT4SpinalProcess			pT8SpinalProcess			pPX			pC7SpinalProcess			pTopOfHead			pRightAuricularis			pLeftAuricularis			pBackOfHead			pRightAcromion			pLeftAcromion			pRightArmLatEpicondyle			pRightArmMedEpicondyle			pLeftArmLatEpicondyle			pLeftArmMedEpicondyle			pRightUlnarStyloid			pRightRadialStyloid			pRightOlecranon			pLeftUlnarStyloid			pLeftRadialStyloid			pLeftOlecranon			pRightTopOfHand			pRightPinky			pRightBallHand			pLeftTopOfHand			pLeftPinky			pLeftBallHand			pRightGreaterTrochanter			pRightKneeLatEpicondyle			pRightKneeMedEpicondyle			pRightPatella			pLeftGreaterTrochanter			pLeftKneeLatEpicondyle			pLeftKneeMedEpicondyle			pLeftPatella			pRightTibialTub			pRightLatMalleolus			pRightMedMalleolus			pLeftTibialTub			pLeftLatMalleolus			pLeftMedMalleolus			pRightHeelFoot			pRightFirstMetatarsal			pRightFifthMetatarsal			pRightPivotFoot			pRightHeelCenter			pRightToe			pLeftHeelFoot			pLeftFirstMetatarsal			pLeftFifthMetatarsal			pLeftPivotFoot			pLeftHeelCenter			pLeftToe			
		X1	Y1	Z1	X2	Y2	Z2	X3	Y3	Z3	X4	Y4	Z4	X5	Y5	Z5	X6	Y6	Z6	X7	Y7	Z7	X8	Y8	Z8	X9	Y9	Z9	X10	Y10	Z10	X11	Y11	Z11	X12	Y12	Z12	X13	Y13	Z13	X14	Y14	Z14	X15	Y15	Z15	X16	Y16	Z16	X17	Y17	Z17	X18	Y18	Z18	X19	Y19	Z19	X20	Y20	Z20	X21	Y21	Z21	X22	Y22	Z22	X23	Y23	Z23	X24	Y24	Z24	X25	Y25	Z25	X26	Y26	Z26	X27	Y27	Z27	X28	Y28	Z28	X29	Y29	Z29	X30	Y30	Z30	X31	Y31	Z31	X32	Y32	Z32	X33	Y33	Z33	X34	Y34	Z34	X35	Y35	Z35	X36	Y36	Z36	X37	Y37	Z37	X38	Y38	Z38	X39	Y39	Z39	X40	Y40	Z40	X41	Y41	Z41	X42	Y42	Z42	X43	Y43	Z43	X44	Y44	Z44	X45	Y45	Z45	X46	Y46	Z46	X47	Y47	Z47	X48	Y48	Z48	X49	Y49	Z49	X50	Y50	Z50	X51	Y51	Z51	X52	Y52	Z52	X53	Y53	Z53	X54	Y54	Z54	X55	Y55	Z55	X56	Y56	Z56	X57	Y57	Z57	X58	Y58	Z58	X59	Y59	Z59	X60	Y60	Z60	X61	Y61	Z61	X62	Y62	Z62	X63	Y63	Z63	X64	Y64	Z64	
158	2.617	4.919999564491574E-14	1250.01928	5.863427156544783E-14	81.09484837562056	1329.59656	159.29955154806788	85.19576808482863	1366.16218	-132.40133132445794	41.28071349691767	1409.28793	141.84696439118326	44.59715009192846	1439.23637	-96.92018024976531	-67.18709908272488	1188.41107	51.983152124990525	-65.48870089507349	1203.41381	-67.39690491059429	-69.32589710070138	1280.25294	2.842730217934232	-15.236268430302124	1383.4467	14.944269445054156	48.88758502786126	1486.86864	26.66848674394827	112.46392314540896	1578.53939	36.320260417411156	378.1544637463431	1603.86721	57.25719512775149	264.3879522417344	1712.13794	52.4867329954274	188.18359551397688	1658.63007	45.09087790874756	277.23945951474025	1526.51467	47.213553773034405	313.67663068432853	1744.08294	57.446782289442524	562.0713854197543	1799.92965	82.62021643958929	469.91757721770034	1756.51868	140.436230243414	482.33865048510415	1765.41764	4.016401166911038	453.84055073875004	1810.02655	73.35370384390194	299.4684920849424	1692.51458	246.2267502761482	323.0411611139074	1708.20186	-133.8219690823484	314.19441584112315	1367.36011	274.60340500368875	276.88276616558716	1357.54844	219.75385382030558	379.7951929096462	1388.01028	-98.48858626745701	341.30741391338637	1385.21509	-43.63015365218024	403.5734411369922	1131.82278	204.07347620991916	449.2905332757409	1149.2214	226.25354653734723	273.9360452932125	1355.15256	238.1622840264587	429.96013760852026	1155.72449	20.489060428685832	480.3613908521006	1173.46537	26.15380865750248	336.5810022799202	1378.82609	-76.15281129628794	588.593383197688	1026.97472	317.7218219168558	502.05233477369677	1033.53486	258.16036075932203	457.7705777455484	1095.71352	217.7230786598221	641.7700809716363	1043.11836	37.116963564330774	537.3718791214118	1055.32591	42.357508886392594	481.51735725845725	1121.21248	43.94939380824914	16.5940954224901	1215.62136	176.41225947445207	254.99804238655327	851.61949	176.01226543804984	258.4528508901356	846.20025	92.0937948096323	294.41014769558234	877.23253	130.9524738367108	26.66052491406279	1249.2777	-176.06968667945858	416.59559329455385	1056.29567	-170.62222276240917	422.69432558369124	1056.23863	-86.67774535333575	437.7710774093592	1099.82073	-127.10464165946615	288.4535156479306	794.63189	131.92949192282208	18.967014481917644	476.0946	96.52918804189193	30.621902934443998	480.37295	31.34651053788272	458.7596945705661	1010.77405	-130.0462765422977	251.31849380255608	648.36942	-161.43550809905042	255.57463634255907	646.25877	-95.30619306352794	-55.22007657183663	420.76129	50.803137306061124	102.38132337386534	338.38883	22.440622115835303	92.52835970107157	333.02663	106.36620051413477	118.49924885222404	324.12767	64.98933779602683	-17.00237866712783	402.16474	54.106258082980546	197.344132443541	279.74693	71.3609991064997	197.19225108340373	565.48356	-124.06057713266185	367.460807867379	543.12205	-69.96897480820508	372.6751184712668	535.1358	-154.09792428121455	393.6803537223443	535.64921	-109.09708216074989	239.52821312550287	561.37634	-121.08549105815183	483.0517057724919	521.55918	-102.249878596587	
159	2.633	4.919999564491574E-14	1250.01928	5.863427156544783E-14	80.64931203416336	1330.05292	159.30105960672446	85.23947092030856	1366.04809	-132.43800235759053	40.732208714162105	1409.6302	141.63700539567637	44.537876825665634	1439.12228	-97.16831190918535	-67.14340390768938	1188.41107	51.946487519734006	-65.28426441068896	1203.18563	-67.41951357160058	-69.42887320244415	1280.1959	2.631269591646813	-15.456268917593437	1383.4467	14.682083073952253	48.53648492714291	1486.92569	26.516292956047593	111.97469805679233	1578.71052	36.358440741768696	377.56527990586517	1604.20948	57.97497342041552	263.7324709930908	1712.36612	53.036747069407895	187.63660521775398	1658.85824	45.3264629151423	276.7658048569066	1526.79989	47.53653678994458	313.0437516688151	1744.36817	58.20122518736309	561.4611150652472	1800.15783	83.57909582189438	469.31433100509616	1756.68981	141.3147421849827	481.69170909746447	1765.75991	4.931577713736232	453.2232562423401	1810.31177	74.39295066694348	298.28711471454955	1692.68572	246.77124183900634	322.35603940191015	1708.60117	-133.39601762413997	313.5951840809848	1367.4742	274.51048448205086	276.40759578865243	1357.66253	219.6313069236346	379.87858412814023	1388.46663	-97.59049587051575	341.58117158369424	1385.78553	-42.59393183946463	403.4408386602163	1132.16505	203.73795420042813	449.1508925687416	1149.62071	225.9983907360243	273.460876148846	1355.20961	238.03972304146723	429.98977807187384	1155.83857	20.613123044457808	480.4050860271361	1173.46537	26.117144052246005	336.7377291368034	1379.39653	-75.16732288883127	588.6566632559723	1027.25995	316.99852754094553	501.98452164643004	1033.82008	257.54706662705735	457.68870224615534	1096.05579	217.270518176462	641.9292989014398	1043.23245	36.68549602287595	537.4733318436091	1055.44	42.12344602697499	481.6047552689727	1121.26952	43.87605816985999	16.74076669926839	1216.76225	176.58705549548296	264.81029546319076	859.26347	179.0977199706946	268.6669310448742	853.44492	95.21440465630869	303.6231690120814	885.67514	133.94500784771776	26.339064044129742	1248.02272	-176.09780376326677	410.13966648986	1043.1754	-170.4177179709345	416.31877264761	1043.23245	-86.46620875951373	432.7095184087672	1086.18706	-127.10207338644284	296.25508943832006	801.36316	134.39363750659112	15.578549013255525	493.20799	94.53212847878808	27.664905007236708	497.77156	29.508668904582457	454.1732918585883	998.56649	-129.9211626051718	257.2399769640523	630.40036	-162.01069144661608	261.4961054157348	628.34675	-95.88137764366196	-59.90998166251829	440.4417	48.40877607339419	95.2648572071526	353.84793	19.55052384128949	85.13412907202958	348.14346	103.4113064622037	110.94428334170914	338.78814	62.020395460289976	-22.24781391503627	420.70425	51.58231938386369	188.43700799406815	292.18267	68.11178714719273	204.89736838575715	546.3736	-124.19627935472994	375.4240983209368	528.11931	-69.35325914267847	381.07691469650285	519.61966	-153.40335689405254	401.91438449632847	520.87464	-108.33620327710162	247.29963549646644	543.23614	-121.05343548941246	491.52835335521814	508.83822	-101.02238328532846	
160	2.65	4.919999564491574E-14	1250.01928	5.863427156544783E-14	80.12342234029019	1330.45223	159.2955447560465	85.48057077738127	1365.934	-132.41690175524081	40.14704575402613	1409.97246	141.3833588855784	44.52230639488273	1438.95114	-97.45311460173798	-67.26043472111402	1188.41107	51.89575411447508	-65.07280378440156	1202.95745	-67.52248967334336	-69.44444363322704	1280.08181	2.3464668990941746	-15.632580657725342	1383.50375	14.383224437149398	48.22205585955716	1487.03978	26.407802003626855	111.55880217868874	1578.82461	36.484011416197234	377.0720480252272	1604.38061	58.98457978010347	263.25330148457914	1712.53725	53.885619780191234	187.14888175991786	1659.02938	45.81017192051263	276.3147600926475	1526.97103	48.06394220291874	312.50681695269714	1744.5393	59.24750258018361	560.8960556048767	1800.27192	84.94684051252406	468.75630334707284	1756.74685	142.6021130069998	481.1703524725738	1765.98809	6.262651371233289	452.70189318957335	1810.42586	75.72401666399617	297.1579723801961	1692.57163	247.64423126945255	322.0009325091704	1709.05753	-132.57678537671023	312.9592877155898	1367.30307	274.37386878537757	275.8590974337729	1357.60548	219.4213555885721	379.9619753466343	1388.92299	-96.69240547357452	341.7815936156129	1386.24189	-41.645108037264464	403.30822975556435	1132.27914	203.40242453049268	449.01828366408967	1149.79184	225.66286106608885	272.8686749584866	1355.03847	237.86644273953738	429.90238006135843	1155.89562	20.686458682846933	480.4050860271361	1173.40833	26.117144052246005	336.8140962133946	1379.85289	-74.18886505115356	588.6325453037409	1027.37404	316.34856880342426	501.95337312441984	1033.99122	256.9774676698281	457.5631315717268	1096.22692	216.8546222983584	641.8840880073033	1043.28949	36.27663071455129	537.4873942157353	1055.44	41.96271237807039	481.61177941087556	1121.21248	43.79569072912358	16.71967375736311	1217.96019	176.82814892467957	274.550722192664	867.4779	182.54129874596066	278.9699185013533	861.26003	98.70720111773264	312.8306678174581	894.6882	137.46343798047394	25.93722287770801	1246.71069	-176.1329603098667	402.5952969247317	1028.8572	-170.26795214417177	408.89845803780923	1029.02833	-86.3460769682286	426.63985467926784	1071.24137	-127.14720831304476	304.16819327977674	808.83601	137.43440742206047	13.397094586318524	510.77774	93.08606600392852	25.921942263657417	515.56949	28.141456918789995	448.2573376360906	985.21804	-129.87186771891095	261.46824134508824	611.86085	-162.20763296347454	265.80474366538334	609.86429	-96.0712873581731	-63.27583847017409	460.23619	46.616152994674884	89.74317321601595	369.93452	17.407319278368526	79.45171143198836	364.00187	101.25403952715644	105.02779641437422	354.30428	59.761668142600975	-26.09586400896139	439.52898	49.74750276088936	181.35872091914464	305.6452	65.71092804958407	210.6315024453211	526.97842	-124.01853552347603	381.28381071537376	511.97568	-68.75962586119712	387.2510625864016	503.07671	-152.70122499970597	407.96446334257917	505.01623	-107.60443857984586	253.06340235893956	524.58255	-120.75162261451047	497.76177451137977	494.57706	-100.07211973156183	
161	2.667	4.919999564491574E-14	1250.01928	5.863427156544783E-14	79.50308997780209	1330.85154	159.44372409148136	85.88239785548248	1365.70582	-132.38174644120923	39.51817353053409	1410.31473	141.16637574816855	44.74782816072812	1438.78001	-97.7168102640648	-67.37044139263578	1188.52516	51.764653268479705	-64.73728177491053	1202.72927	-67.65509215011923	-69.46002172445438	1280.02476	2.0616706344176237	-15.808884737412816	1383.50375	14.084359372470448	47.98798657226344	1487.09682	26.3063416209851	111.29660814714241	1578.88165	36.704018331364644	376.7043868190177	1604.43765	60.41008201789501	262.8700621871423	1712.5943	55.026325753306196	186.84450827243703	1659.08642	46.51237335451766	275.9596455394633	1527.02807	48.883180878224536	312.13915574648775	1744.59634	60.67300481797514	560.4932390846357	1800.21487	86.7741698284168	468.3168222215753	1756.57572	144.38574714785693	480.77456652211174	1766.10218	8.00962090683393	452.2990766693323	1810.42586	77.55134597988882	296.168477180718	1692.11527	248.7723841616661	322.2169326323164	1709.45684	-131.3431653098335	312.2641180839321	1366.73262	273.9891214292841	275.38241899818155	1357.26321	218.85327235044394	379.92832809125935	1389.20821	-95.84504205401612	341.71128298754974	1386.47007	-40.84145388106211	403.30671403646335	1132.16505	202.95689461691154	448.8490101541812	1149.7348	225.28363622111786	272.26793390712334	1354.58211	237.32799996476282	429.6542484019384	1155.83857	20.745731949109768	480.200657203196	1173.23719	26.13974628537619	336.7804489580196	1380.19516	-73.34150163159515	588.5873344096044	1027.25995	315.9397034950997	501.95185740531883	1033.87713	256.5319377562471	457.51792067759027	1096.16988	216.44575699003377	641.6640810921359	1043.11836	36.01443668300493	537.2603631586651	1055.26887	41.78088578726053	481.4143811567145	1121.09839	43.73793318196172	16.333417110044806	1219.15813	177.0777963032006	283.9501031689555	876.20573	186.64339020807233	289.1729677221677	869.6456	102.87960444047586	321.8141516830777	904.21465	141.6911142053347	25.49170062457131	1245.17049	-176.13145101864177	393.6706219276279	1013.28401	-170.07698344786223	400.178225952966	1013.62628	-86.17770927248094	419.4380312655335	1054.9266	-127.21041240379441	311.9446673362395	816.93635	141.11107247035645	12.26191112432597	528.63272	92.17693058474248	25.30563078151122	533.65264	27.318211451462815	440.8510853984162	970.67166	-129.91246957653033	263.8144362129512	592.52272	-161.71893415181904	268.47944406127885	590.5832	-95.63483001043308	-65.19358957433982	479.97363	45.3956058577846	85.96996039126046	386.6486	16.105429346922435	75.36406953964712	380.60186	99.8436586432896	100.77239673122553	370.50496	58.417592327344295	-28.495816059840877	458.52485	48.48476850762016	176.13891934256844	320.24863	64.28247800156956	214.31580154046011	507.0128	-123.08883986722194	385.26696721474735	494.63411	-68.0062278567544	391.23422674621963	485.39288	-151.9478334231394	411.99132391000103	487.84579	-106.88772569685628	256.7914042895585	505.18737	-119.858597991389	501.91972826435256	478.60456	-99.46540709221793	
